<svg width="24" height="24" viewBox="0 0 24 24" fill="none" xmlns="http://www.w3.org/2000/svg">
<circle cx="12" cy="8" r="3" stroke="#01B195" stroke-width="2" stroke-linecap="round"/>
<path d="M15.2679 8C15.5332 7.54063 15.97 7.20543 16.4824 7.06815C16.9947 6.93086 17.5406 7.00273 18 7.26795C18.4594 7.53317 18.7946 7.97 18.9319 8.48236C19.0691 8.99472 18.9973 9.54063 18.7321 10C18.4668 10.4594 18.03 10.7946 17.5176 10.9319C17.0053 11.0691 16.4594 10.9973 16 10.7321C15.5406 10.4668 15.2054 10.03 15.0681 9.51764C14.9309 9.00528 15.0027 8.45937 15.2679 8L15.2679 8Z" stroke="#01B195" stroke-width="2"/>
<path d="M5.26795 8C5.53317 7.54063 5.97 7.20543 6.48236 7.06815C6.99472 6.93086 7.54063 7.00273 8 7.26795C8.45937 7.53317 8.79457 7.97 8.93185 8.48236C9.06914 8.99472 8.99727 9.54063 8.73205 10C8.46683 10.4594 8.03 10.7946 7.51764 10.9319C7.00528 11.0691 6.45937 10.9973 6 10.7321C5.54063 10.4668 5.20543 10.03 5.06815 9.51764C4.93086 9.00528 5.00273 8.45937 5.26795 8L5.26795 8Z" stroke="#01B195" stroke-width="2"/>
<path d="M16.9995 14L16.9995 13L16.9994 13L16.9995 14ZM20.7202 16.9043L21.6627 16.5702L21.6627 16.57L20.7202 16.9043ZM16.8813 18L15.901 18.1974L16.0627 19H16.8813V18ZM14.7827 14.7129L14.1779 13.9165L13.0221 14.7943L14.254 15.5617L14.7827 14.7129ZM16.9995 14V15C18.6412 15 19.4028 16.1814 19.7777 17.2386L20.7202 16.9043L21.6627 16.57C21.1976 15.2588 19.9479 13 16.9995 13V14ZM20.7202 16.9043L19.7777 17.2384C19.7706 17.2184 19.7641 17.1807 19.7725 17.135C19.7804 17.0917 19.7982 17.059 19.8151 17.038C19.8472 16.9981 19.8735 17 19.8667 17V18V19C21.0118 19 22.1414 17.9204 21.6627 16.5702L20.7202 16.9043ZM19.8667 18V17H16.8813V18V19H19.8667V18ZM16.8813 18L17.8617 17.8026C17.6437 16.7205 17.0373 14.9392 15.3114 13.8641L14.7827 14.7129L14.254 15.5617C15.292 16.2083 15.727 17.3334 15.901 18.1974L16.8813 18ZM14.7827 14.7129L15.3875 15.5092C15.7741 15.2157 16.2844 15.0001 16.9996 15L16.9995 14L16.9994 13C15.8352 13.0001 14.9024 13.3662 14.1779 13.9165L14.7827 14.7129Z" fill="#01B195"/>
<path d="M6.99976 14L6.99976 13L6.99972 13L6.99976 14ZM9.21655 14.7129L9.74537 15.5616L10.9772 14.7941L9.82128 13.9165L9.21655 14.7129ZM7.1189 18V19H7.93756L8.09921 18.1975L7.1189 18ZM4.13257 18L4.13246 19H4.13257V18ZM3.28003 16.9043L2.33756 16.57L2.33755 16.57L3.28003 16.9043ZM6.99976 14V15C7.71473 15 8.22509 15.2157 8.61183 15.5093L9.21655 14.7129L9.82128 13.9165C9.09687 13.3664 8.16417 13 6.99976 13V14ZM9.21655 14.7129L8.68773 13.8642C6.96205 14.9394 6.35642 16.721 6.13858 17.8025L7.1189 18L8.09921 18.1975C8.27332 17.3331 8.70785 16.2081 9.74537 15.5616L9.21655 14.7129ZM7.1189 18V17H4.13257V18V19H7.1189V18ZM4.13257 18L4.13268 17C4.12587 17 4.15268 16.9982 4.18505 17.0385C4.202 17.0596 4.21985 17.0925 4.22771 17.1357C4.23601 17.1813 4.22951 17.2188 4.22251 17.2386L3.28003 16.9043L2.33755 16.57C1.85908 17.9191 2.9861 18.9999 4.13246 19L4.13257 18ZM3.28003 16.9043L4.2225 17.2386C4.59761 16.1811 5.35842 15.0001 6.99979 15L6.99976 14L6.99972 13C4.05121 13.0001 2.80253 15.2591 2.33756 16.57L3.28003 16.9043Z" fill="#01B195"/>
<path d="M12 14C15.5715 14 16.5919 16.5512 16.8834 18.0089C16.9917 18.5504 16.5523 19 16 19H8C7.44772 19 7.00829 18.5504 7.11659 18.0089C7.4081 16.5512 8.42846 14 12 14Z" stroke="#01B195" stroke-width="2" stroke-linecap="round"/>
</svg>
