<svg width="278" height="210" viewBox="0 0 278 210" fill="none" xmlns="http://www.w3.org/2000/svg">
<path d="M277.039 124.398C254.5 84.5651 200.988 51.9302 138.519 51.9302C76.0505 51.9302 22.5383 84.5651 0 124.398C22.5383 164.166 76.0505 196.735 138.519 196.735C200.988 196.735 254.5 164.166 277.039 124.398Z" fill="#F2F2F2"/>
<path d="M184.151 164.356C206.258 139.147 203.744 100.79 178.535 78.6825C153.327 56.5751 114.97 59.0892 92.8622 84.2978C70.7548 109.506 73.2689 147.864 98.4775 169.971C123.686 192.078 162.043 189.564 184.151 164.356Z" fill="#014C40"/>
<path d="M138.52 158.368C157.317 158.368 172.555 143.13 172.555 124.333C172.555 105.536 157.317 90.2976 138.52 90.2976C119.722 90.2976 104.484 105.536 104.484 124.333C104.484 143.13 119.722 158.368 138.52 158.368Z" fill="#01B195"/>
<path d="M203.659 107.462C203.659 119.806 193.66 129.805 181.316 129.805C168.972 129.805 158.973 119.806 158.973 107.462C158.973 95.1178 168.972 85.1189 181.316 85.1189C193.66 85.1189 203.659 95.1178 203.659 107.462Z" fill="#F2F2F2"/>
<g style="mix-blend-mode:multiply" opacity="0.5">
<path d="M277.039 124.398C262.383 98.4722 234.535 75.6733 199.718 62.8408C200.37 66.4886 200.728 70.2016 200.728 73.9797C200.728 127.98 132.918 171.787 48.9526 172.34C73.9337 187.257 104.908 196.735 138.52 196.735C200.988 196.735 254.501 164.165 277.039 124.398Z" fill="#01B195"/>
</g>
<path d="M52.8282 14.7028C52.7956 13.9536 52.7304 13.172 53.1213 12.5206C53.7401 11.5109 55.2057 11.3481 56.248 11.8692C57.2902 12.3577 58.0393 13.3348 58.7233 14.2793C63.3156 20.6305 67.224 27.4701 70.4158 34.6355C73.8031 42.2894 61.5243 45.4486 56.6388 41.41C51.1997 36.9154 53.219 21.1516 52.8282 14.7028Z" fill="#F2F2F2"/>
<path d="M229.064 19.3603C229.552 18.8066 230.106 18.2203 230.855 18.0901C231.995 17.8295 233.135 18.774 233.493 19.8814C233.851 20.9888 233.688 22.1939 233.493 23.3338C232.093 31.0528 229.845 38.609 226.881 45.8721C223.69 53.6237 212.942 46.9143 212.453 40.5958C211.932 33.5607 224.732 24.1155 229.096 19.3603H229.064Z" fill="#F2F2F2"/>
<path d="M115.753 2.03297C115.949 1.25129 116.242 0.371906 116.991 0.0787773C118.163 -0.34463 119.173 1.02331 119.662 2.16325C123.212 10.664 125.264 19.7835 125.72 28.9682C126.045 35.9381 115.069 34.4725 113.604 28.9682C111.584 21.3143 113.929 9.49145 115.753 1.96783V2.03297Z" fill="#F2F2F2"/>
<path d="M177.668 5.58331C178.124 4.93192 178.711 4.18281 179.525 4.21538C180.795 4.21538 181.218 5.87644 181.284 7.11409C181.609 16.3313 180.339 25.5812 177.473 34.3425C175.323 40.9541 165.552 35.7104 166.139 30.1084C166.953 22.2265 173.304 11.9996 177.668 5.61588V5.58331Z" fill="#F2F2F2"/>
</svg>
