<svg width="212" height="217" viewBox="0 0 212 217" fill="none" xmlns="http://www.w3.org/2000/svg">
<path d="M211.751 118.549C211.751 179.695 168.865 212.182 110.432 216.668C52.103 221.155 0 179.695 0 118.549C0 57.4031 42.7467 9.99564 101.145 7.4218C162.013 4.74361 211.716 57.4378 211.716 118.549H211.751Z" fill="#01B195"/>
<path d="M185.143 116.95C185.143 162.722 153.039 187.07 109.249 190.443C65.5634 193.782 26.5383 162.757 26.5383 116.95C26.5383 71.1422 58.5375 35.6649 102.293 33.7171C147.857 31.6998 185.108 71.177 185.108 116.95H185.143Z" fill="#D9D9D9"/>
<path d="M156.204 115.21C156.204 144.287 135.822 159.73 108.032 161.852C80.3107 163.974 55.5461 144.253 55.5461 115.21C55.5461 86.1672 75.8586 63.5939 103.649 62.3765C132.588 61.0896 156.239 86.1672 156.239 115.21H156.204Z" fill="#01B195"/>
<path d="M133.144 113.819C133.144 129.575 122.118 137.923 107.058 139.071C92.0323 140.219 78.6414 129.541 78.6414 113.819C78.6414 98.0981 89.6324 85.8549 104.693 85.1941C120.379 84.4985 133.179 98.0633 133.179 113.819H133.144Z" fill="#D9D9D9"/>
<path d="M113.214 112.602C113.214 116.845 110.223 119.106 106.189 119.419C102.154 119.732 98.5366 116.845 98.5366 112.602C98.5366 108.358 101.493 105.054 105.563 104.88C109.771 104.706 113.249 108.358 113.249 112.602H113.214Z" fill="#01B195"/>
<g style="mix-blend-mode:multiply" opacity="0.5">
<path d="M143.961 15.0039C151.787 29.2644 156.204 45.3335 156.204 62.307C156.204 121.436 102.954 169.4 37.251 169.4C28.7991 169.4 20.5558 168.6 12.5908 167.069C31.5121 200.216 69.4241 219.798 110.432 216.668C168.9 212.181 211.751 179.695 211.751 118.549C211.751 72.6371 183.717 31.4904 143.961 15.0039Z" fill="#01B195"/>
</g>
<path d="M184.343 19.7343C184.343 19.7343 181.421 6.96943 181.421 0.917423C181.421 -5.13459 159.057 20.4299 160.448 28.6384C161.839 36.8469 165.074 38.7251 165.074 38.7251L184.378 19.7343H184.343Z" fill="#D9D9D9"/>
<path d="M191.23 30.3433C191.23 30.3433 203.334 33.891 209.108 34.0997C214.881 34.3084 189.63 56.7426 181.839 55.0035C174.048 53.2644 172.378 49.821 172.378 49.821L191.265 30.378L191.23 30.3433Z" fill="#D9D9D9"/>
<path d="M187.543 10.03L102.919 108.845L109.145 115.349L202.534 24.9514L187.543 10.03Z" fill="#014C40"/>
</svg>
